<?xml version="1.0" standalone="no"?>
<!DOCTYPE svg PUBLIC "-//W3C//DTD SVG 20010904//EN"
 "http://www.w3.org/TR/2001/REC-SVG-20010904/DTD/svg10.dtd">
<svg version="1.0" xmlns="http://www.w3.org/2000/svg"
 width="512.000000pt" height="512.000000pt" viewBox="0 0 512.000000 512.000000"
 preserveAspectRatio="xMidYMid meet">
<metadata>
Created by potrace 1.14, written by Peter Selinger 2001-2017
</metadata>
<g transform="translate(0.000000,512.000000) scale(0.100000,-0.100000)"
fill="#000000" stroke="none">
<path d="M2248 4313 l-157 -4 -3 -77 -3 -77 -77 -3 -77 -3 -3 -77 -3 -77 -163
-3 -163 -2 3 -73 3 -72 238 -3 237 -2 0 80 0 80 160 0 160 0 0 80 0 80 400 0
400 0 0 -160 0 -160 560 0 559 0 3 -157 3 -158 157 -3 157 -3 3 -77 3 -77 78
-3 77 -3 0 -394 0 -395 75 0 75 0 0 353 c0 195 3 409 7 475 l6 122 -81 0 -82
0 0 80 0 80 -80 0 -80 0 0 80 0 80 -80 0 -80 0 0 75 0 75 -562 2 -563 3 3 163
4 162 -479 -2 c-263 -1 -549 -4 -635 -5z"/>
<path d="M1130 4075 l0 -76 73 3 72 3 0 70 0 70 -72 3 -73 3 0 -76z"/>
<path d="M1450 4075 l0 -75 70 0 70 0 0 75 0 75 -70 0 -70 0 0 -75z"/>
<path d="M970 3915 l0 -75 75 0 75 0 0 75 0 75 -75 0 -75 0 0 -75z"/>
<path d="M1283 3918 l2 -73 78 -3 77 -3 0 76 0 75 -79 0 -80 0 2 -72z"/>
<path d="M812 3758 l3 -73 70 0 70 0 3 73 3 72 -76 0 -76 0 3 -72z"/>
<path d="M970 3606 l0 -75 78 -3 77 -3 0 -85 0 -85 -77 -3 -77 -3 -3 -77 -3
-77 -76 -3 -76 -3 -6 -352 c-4 -194 -7 -585 -7 -869 l0 -517 83 -3 82 -3 3
-157 3 -158 237 -2 237 -3 3 -82 3 -83 74 0 75 0 0 -80 0 -80 80 0 80 0 0 -75
0 -75 163 -2 162 -3 3 -77 3 -78 549 0 550 0 0 75 0 75 -475 0 -474 0 -3 78
-3 77 -157 3 -157 3 -3 77 -3 77 -77 3 -77 3 -3 77 -3 77 -77 3 -77 3 -3 77
-3 77 -77 3 -78 3 0 484 0 485 80 0 81 0 -3 73 -3 72 -155 0 -155 0 -3 -557
-2 -558 -80 0 -80 0 0 160 0 160 -80 0 -80 0 0 720 0 720 80 0 80 0 0 80 0 80
80 0 80 0 -2 238 -3 237 -152 3 -153 3 0 -75z"/>
<path d="M2564 3027 c-3 -8 -4 -43 -2 -78 l3 -64 77 -3 77 -3 3 -77 3 -77 472
-3 473 -2 5 23 c4 13 5 48 3 78 l-3 54 -397 3 -397 2 -3 78 -3 77 -153 3
c-122 2 -153 0 -158 -11z"/>
<path d="M1764 2867 c-2 -7 -3 -78 -2 -157 l3 -145 65 -1 c36 0 71 1 78 4 8 3
12 28 12 78 l0 74 238 2 237 3 0 75 0 75 -313 3 c-250 2 -314 0 -318 -11z"/>
<path d="M4000 2725 c0 -85 3 -155 8 -156 17 -3 80 -7 114 -8 l38 -1 2 -557 3
-558 77 -3 77 -3 -2 243 -2 243 78 3 77 3 0 74 0 75 -75 0 -75 0 -1 300 c-1
165 -3 305 -4 310 -1 6 -3 15 -4 20 0 6 -33 10 -76 10 l-75 0 -1 60 c-1 33 -3
65 -4 70 -1 6 -3 15 -4 20 0 6 -33 10 -76 10 l-75 0 0 -155z"/>
<path d="M2409 2710 c0 -5 0 -40 -1 -77 l0 -68 152 0 152 1 0 67 c-1 37 -1 72
-1 77 -1 6 -58 10 -151 10 -93 0 -150 -4 -151 -10z"/>
<path d="M3687 2714 c-6 -7 -11 -143 -4 -145 1 0 34 -3 74 -5 69 -5 73 -4 78
19 4 13 5 48 3 78 l-3 54 -70 3 c-39 1 -74 0 -78 -4z"/>
<path d="M1607 2554 c-4 -4 -7 -38 -7 -76 l0 -68 80 0 81 0 -3 73 -3 72 -70 3
c-39 1 -74 0 -78 -4z"/>
<path d="M3847 2553 c-4 -3 -7 -37 -7 -74 l0 -67 59 -4 c93 -5 91 -7 91 78 l0
74 -68 0 c-38 0 -72 -3 -75 -7z"/>
<path d="M4640 2400 l0 -160 -80 0 -80 0 0 -75 0 -75 155 0 155 0 0 235 0 235
-75 0 -75 0 0 -160z"/>
<path d="M2094 2071 c-2 -2 -4 -71 -4 -153 l0 -148 150 0 150 0 0 153 0 152
-146 0 c-80 0 -148 -2 -150 -4z"/>
<path d="M3530 2072 c-6 -2 -10 -60 -10 -153 l0 -149 155 0 155 0 0 153 0 152
-145 0 c-79 0 -149 -1 -155 -3z"/>
<path d="M2570 1684 l0 -74 70 0 70 0 0 75 0 75 -70 -1 -70 -1 0 -74z"/>
<path d="M3206 1742 c-3 -10 -5 -43 -4 -75 l2 -57 73 0 73 0 0 75 0 75 -69 0
c-58 0 -71 -3 -75 -18z"/>
<path d="M2730 1525 l0 -75 230 0 230 0 0 75 0 75 -230 0 -230 0 0 -75z"/>
<path d="M4004 1427 c-3 -8 -4 -43 -2 -78 l3 -64 78 -3 78 -3 -3 78 -3 78 -73
3 c-55 2 -74 -1 -78 -11z"/>
<path d="M3844 1267 c-3 -8 -4 -43 -2 -78 l3 -64 78 -3 78 -3 -3 78 -3 78 -73
3 c-55 2 -74 -1 -78 -11z"/>
<path d="M3684 1106 c-3 -7 -4 -42 -2 -77 l3 -64 78 -3 77 -3 0 81 0 80 -75 0
c-54 0 -77 -4 -81 -14z"/>
<path d="M3367 953 c-4 -3 -7 -39 -7 -79 l0 -73 -77 -3 -78 -3 -1 -72 -1 -73
78 0 79 0 0 -80 0 -80 80 0 80 0 0 155 0 155 80 0 80 0 0 80 0 80 -153 0 c-85
0 -157 -3 -160 -7z"/>
<path d="M1600 565 l0 -75 80 0 80 0 0 75 0 75 -80 0 -80 0 0 -75z"/>
<path d="M1440 240 l0 -240 80 0 80 0 0 240 0 240 -80 0 -80 0 0 -240z"/>
<path d="M3520 240 l0 -240 80 0 80 0 0 240 0 240 -80 0 -80 0 0 -240z"/>
<path d="M2250 160 l0 -160 75 0 75 0 0 160 0 160 -75 0 -75 0 0 -160z"/>
<path d="M3040 160 l0 -160 75 0 75 0 0 160 0 160 -75 0 -75 0 0 -160z"/>
</g>
</svg>
